<?xml version="1.0" encoding="UTF-8"?>
<svg id="Layer_1" data-name="Layer 1" xmlns="http://www.w3.org/2000/svg" version="1.1" xmlns:xlink="http://www.w3.org/1999/xlink" viewBox="0 0 800 800">
  <defs>
    <style>
      .cls-1 {
        fill: #1a1a1a;
      }

      .cls-1, .cls-2, .cls-3, .cls-4 {
        stroke-width: 0px;
      }

      .cls-2 {
        fill: none;
      }

      .cls-5 {
        clip-path: url(#clippath);
      }

      .cls-3 {
        fill: #94b447;
      }

      .cls-4 {
        fill: #fff;
      }
    </style>
    <clipPath id="clippath">
      <rect class="cls-2" width="800" height="800"/>
    </clipPath>
  </defs>
  <g class="cls-5">
    <path class="cls-4" d="M656.82,1240.55c-19.66,6.54-39.1,12.93-58.18,19.27-144.04,47.86-292.12,92.51-392.41,214.61-64.38,78.46-96.54,179.54-86.88,280.74,1.47,15.41,3.78,30.83,7.6,45.85-11.29-44.39,4.39-94.84,25.14-133.76,51.28-96.18,145.32-161.35,239.22-211.53,86.31-46.12,177.7-82.29,270.78-112.71,127.36-41.62,266.55-76.54,374.61-159.45,103.26-79.23,170.28-197.02,167.38-328.82-.54-24.76-3.55-49.28-9.2-73.39,13.44,57.3-12.57,119.36-44.65,165.52-111.54,160.46-311.84,233.29-493.4,293.67"/>
    <rect class="cls-1" x="480.49" y="124.51" width="18.07" height="22.75" transform="translate(76.1 431.15) rotate(-51.05)"/>
    <rect class="cls-1" x="503.24" y="124.51" width="18.07" height="22.75" transform="translate(84.55 448.85) rotate(-51.05)"/>
    <path class="cls-1" d="M551.63,207.65c-.83-10.02-2.89-20.91-8.6-29.37-9.99-14.8-27.23-14.54-42.39-8.63-7.76,3.02-15.38,6.77-22.3,11.38-6.81,4.53-13.65,9.87-18.52,16.54-5.08,6.96-8,15.56-7.86,24.2.22,13.9,7.7,28.7,20.49,34.14,8.54,3.64,22.57-.53,25.46,8.34,1.24,3.8.1,8.11-3.09,13.63-4.94,8.52-10.68,16.66-16.56,24.55-7.79,10.46-16.25,20.41-25.11,29.97-17.83,19.23-37.31,36.84-57.17,53.93-4.67,4.02-9.37,8.01-14.07,11.99-6.18,5.22-12.29,10.36-18.29,15.42-45.25,38.24-92.43,75.91-111.06,134.7-11.94,37.77-8.93,79.06,9.25,114.33,2.77,5.37,5.85,10.62,9.41,15.51-10.53-14.45-12.17-35-10.3-52.12,4.63-42.29,29.25-79.55,55.99-111.36,24.58-29.23,52.45-55.6,81.77-80.13,40.11-33.56,83.49-67.65,112.61-112.13,18.96-28.96,34.52-45.27,39.91-87.24,1.11-8.66,1.22-18.27.44-27.67"/>
  </g>
  <path class="cls-3" d="M615.97,242.33c-.98-2.24-2.05-4.44-3.16-6.61l1.48,10.92c.2,5.17-.02,10.22-.66,15.16-.25,3.5-.71,6.95-1.37,10.34-.71,5.93-2,11.7-3.91,17.3-18.95,70.31-79.17,123.26-134.7,169.46-6.19,5.15-12.33,10.22-18.34,15.22-45.38,37.74-92.7,74.91-111.2,133.04-11.86,37.34-8.65,78.2,9.8,113.13,2.81,5.32,5.93,10.52,9.53,15.36-10.66-14.31-12.4-34.65-10.59-51.58,4.48-41.83,29.1-78.64,55.88-110.06,24.62-28.87,52.55-54.9,81.95-79.11,40.23-33.12,85.75-65.53,112.86-110.71,25.9-43.17,32.92-95.01,12.41-141.88"/>
  <path class="cls-3" d="M415.57,122.21c-1.06-2.21-2.2-4.36-3.38-6.5l1.86,10.86c.38,5.16.33,10.22-.14,15.18-.13,3.51-.47,6.97-1.01,10.38-.51,5.95-1.6,11.76-3.31,17.43-16.53,70.92-74.91,125.89-128.82,173.97-6.01,5.36-11.97,10.64-17.81,15.84-44.06,39.27-90.08,78.04-106.58,136.77-10.57,37.73-5.97,78.45,13.67,112.73,2.99,5.22,6.28,10.31,10.06,15.03-11.15-13.94-13.58-34.21-12.35-51.19,3.04-41.96,26.39-79.59,52.08-111.91,23.61-29.7,50.64-56.67,79.19-81.87,39.07-34.48,83.46-68.43,109-114.51,24.41-44.04,29.65-96.08,7.55-142.22"/>
</svg>